<svg version="1.1" xmlns="http://www.w3.org/2000/svg" width="512px" height="512px" transform="rotate(0) scale(1, 1)">
<path d="M0 0 C2.86568816 1.60910665 4.89399987 3.72561659 7.09710693 6.13993835 C8.86231504 7.99369468 10.68240217 9.63838554 12.63378906 11.29223633 C17.23918992 15.28459942 21.5340903 19.54476716 25.828125 23.8671875 C26.67475708 24.71527985 27.52138916 25.56337219 28.39367676 26.43716431 C30.69293921 28.74119453 32.98999166 31.04740144 35.28620911 33.35446548 C37.70397816 35.78229752 40.12505749 38.20682346 42.54589844 40.6315918 C49.21100628 47.30868386 55.87106428 53.99080535 62.53106689 60.67298889 C68.64079267 66.80295781 74.75161085 72.93182743 80.86650467 79.05664158 C83.2692931 81.4635705 85.67100382 83.87155438 88.07019043 86.28207397 C90.7476596 88.97156278 93.42820287 91.6579534 96.109375 94.34375 C96.89090942 95.13045074 97.67244385 95.91715149 98.47766113 96.72769165 C101.8858065 100.13616175 105.31690998 103.4581393 108.96875 106.60546875 C113.46891247 110.48392283 117.64278534 114.65418072 121.828125 118.8671875 C122.67475708 119.71527985 123.52138916 120.56337219 124.39367676 121.43716431 C126.69293921 123.74119453 128.98999166 126.04740144 131.28620911 128.35446548 C133.70397816 130.78229752 136.12505749 133.20682346 138.54589844 135.6315918 C145.21100628 142.30868386 151.87106428 148.99080535 158.53106689 155.67298889 C164.64079267 161.80295781 170.75161085 167.93182743 176.86650467 174.05664158 C179.2692931 176.4635705 181.67100382 178.87155438 184.07019043 181.28207397 C186.7476596 183.97156278 189.42820287 186.6579534 192.109375 189.34375 C193.28167664 190.52380112 193.28167664 190.52380112 194.47766113 191.72769165 C198.51164941 195.76206428 202.63806758 199.59759073 206.95878601 203.3213501 C210.70582542 206.64736138 214.20656806 210.22201459 217.73632812 213.77539062 C218.57320663 214.6137294 219.41008514 215.45206818 220.27232361 216.31581116 C222.07670689 218.12397974 223.8799347 219.93330198 225.68211365 221.7436676 C228.53897718 224.61337111 231.39894655 227.47994449 234.2598877 230.34558105 C240.84759083 236.94526737 247.43024346 243.54998354 254.01284027 250.15476227 C260.05165197 256.21381829 266.09155678 262.27177422 272.13553762 268.32567453 C275.42755348 271.62342932 278.71563979 274.92507145 282.00305176 278.22741699 C283.73560929 279.96360916 285.46830856 281.6996599 287.20117188 283.43554688 C287.97335556 284.21289688 288.74553925 284.99024689 289.54112244 285.79115295 C292.92624958 289.17660634 296.33582928 292.47368692 299.9630127 295.59973145 C304.46482928 299.48039681 308.64088153 303.65226433 312.828125 307.8671875 C313.67475708 308.71527985 314.52138916 309.56337219 315.39367676 310.43716431 C317.69293921 312.74119453 319.98999166 315.04740144 322.28620911 317.35446548 C324.70397816 319.78229752 327.12505749 322.20682346 329.54589844 324.6315918 C336.21100628 331.30868386 342.87106428 337.99080535 349.53106689 344.67298889 C355.64079267 350.80295781 361.75161085 356.93182743 367.86650467 363.05664158 C370.2692931 365.4635705 372.67100382 367.87155438 375.07019043 370.28207397 C377.7476596 372.97156278 380.42820287 375.6579534 383.109375 378.34375 C383.89090942 379.13045074 384.67244385 379.91715149 385.47766113 380.72769165 C389.56449038 384.81491029 393.74231595 388.71510202 398.12091446 392.48739243 C400.88035288 394.90372325 403.48199738 397.46337384 406.07763672 400.05322266 C406.63154587 400.6021669 407.18545502 401.15111115 407.75614929 401.71669006 C409.55629287 403.50242962 411.35270113 405.29186053 413.1484375 407.08203125 C413.76746067 407.69822704 414.38648384 408.31442284 415.02426529 408.94929123 C418.29067699 412.20081072 421.55427991 415.45511735 424.81542969 418.71191406 C428.17787728 422.0688456 431.54952815 425.41637445 434.9233532 428.76186562 C437.52602824 431.34592601 440.12197985 433.93666123 442.7161293 436.5292778 C443.95678685 437.76691318 445.19993982 439.00205237 446.44564438 440.2346077 C448.18299964 441.95490355 449.91063842 443.6844198 451.63623047 445.41650391 C452.14946365 445.92052231 452.66269684 446.42454071 453.19148254 446.9438324 C457.94935792 451.7579899 459.27023048 455.73700995 459.40625 462.41796875 C459.29571142 468.52522527 458.31622095 472.70378993 453.96875 477.10546875 C448.62364972 481.10552191 443.59777986 482.54015923 436.96875 482.10546875 C430.72597329 480.22434604 426.93762597 477.84144311 422.34375 473.29296875 C421.70566406 472.67929443 421.06757813 472.06562012 420.41015625 471.43334961 C417.91014307 469.01019494 415.43755844 466.56030318 412.96875 464.10546875 C412.38806763 463.52889526 411.80738525 462.95232178 411.20910645 462.35827637 C401.76145107 452.97471388 392.35455999 443.55085664 382.96875 434.10546875 C382.16136887 434.49233101 382.16136887 434.49233101 381.337677 434.88700867 C378.86432263 436.0703941 376.38921202 437.25006167 373.9140625 438.4296875 C373.06755127 438.83537964 372.22104004 439.24107178 371.34887695 439.65905762 C339.34611777 454.88779696 302.84538435 456.58211687 267.96875 459.10546875 C267.23370239 459.15874329 266.49865479 459.21201782 265.74133301 459.26690674 C223.59375223 462.27021806 181.10479679 462.29753031 138.96875 459.10546875 C138.0981897 459.03994812 137.22762939 458.97442749 136.33068848 458.90692139 C47.25232687 452.12857196 47.25232687 452.12857196 11.96875 426.10546875 C11.04191406 425.42226563 10.11507812 424.7390625 9.16015625 424.03515625 C-30.25949627 393.22573987 -44.11181202 353.00717557 -50.02020264 304.94094849 C-50.10634827 304.23211517 -50.1924939 303.52328186 -50.28125 302.79296875 C-50.36433411 302.10967499 -50.44741821 301.42638123 -50.53302002 300.72238159 C-52.22352899 286.63771001 -53.18506846 272.65270368 -53.234375 258.4609375 C-53.2414381 257.09097764 -53.2485708 255.72101813 -53.25576782 254.35105896 C-53.27529107 249.99835672 -53.28045965 245.64571068 -53.28125 241.29296875 C-53.28154457 240.55147331 -53.28183914 239.80997787 -53.28214264 239.04601288 C-53.28354075 217.2726762 -53.20732096 195.6994342 -50.03125 174.10546875 C-49.8714566 173.00803345 -49.8714566 173.00803345 -49.70843506 171.88842773 C-42.98084197 125.93864437 -29.85182404 92.76433556 3.96875 60.10546875 C0.31869616 55.60819473 -3.59560133 51.50787743 -7.76171875 47.48828125 C-8.54169724 46.73076569 -8.54169724 46.73076569 -9.33743286 45.95794678 C-11.51035258 43.84783251 -13.68325735 41.73850629 -15.88061523 39.65380859 C-28.8176495 27.35088633 -28.8176495 27.35088633 -29.10180664 17.7121582 C-28.91577999 11.99296519 -26.81059151 7.36686913 -23.03125 3.10546875 C-15.90324516 -2.30306124 -8.24655297 -3.37791497 0 0 Z M31.96875 88.10546875 C20.25031042 98.12647293 10.18555325 109.37026256 2.96875 123.10546875 C2.45699219 124.07613281 1.94523437 125.04679687 1.41796875 126.046875 C-6.45667488 141.9720228 -8.64888933 159.68182781 -11.03125 177.10546875 C-11.18513184 178.17974121 -11.33901367 179.25401367 -11.49755859 180.36083984 C-16.92520036 219.86820419 -16.86652537 263.66009797 -11.03125 303.10546875 C-10.9346106 303.76315247 -10.83797119 304.42083618 -10.73840332 305.09844971 C-8.31991857 322.80600495 -8.31991857 322.80600495 -4.03125 340.10546875 C0.08249943 336.15931652 3.65850539 331.92734206 7.21875 327.48046875 C8.3774932 326.0441813 9.53634766 324.60798361 10.6953125 323.171875 C11.25637695 322.47465332 11.81744141 321.77743164 12.39550781 321.05908203 C19.4527907 312.29552249 26.61874015 303.62497169 33.96875 295.10546875 C34.43071777 294.56680176 34.89268555 294.02813477 35.36865234 293.47314453 C47.5311726 279.38371956 62.06444363 269.67617076 81.0390625 267.80224609 C84.12645496 267.66997174 87.19124048 267.63759655 90.28125 267.66796875 C91.37139404 267.67554199 92.46153809 267.68311523 93.5847168 267.69091797 C111.23974202 268.04986112 128.12293994 273.98349223 140.65625 286.8359375 C142.47626995 288.88783499 144.22082229 290.99169571 145.96875 293.10546875 C147.45458321 294.84704281 148.94725296 296.58262433 150.44018555 298.31811523 C151.9641589 300.08996518 153.48471759 301.86467205 155.00390625 303.640625 C157.98994033 307.13083368 160.97901184 310.61843284 163.96875 314.10546875 C168.01757677 310.27012557 171.30545726 306.1631089 174.59375 301.66796875 C175.65892709 300.23085897 176.7253577 298.79467755 177.79296875 297.359375 C178.32583496 296.64281738 178.85870117 295.92625977 179.40771484 295.18798828 C181.70077521 292.12890087 184.04264583 289.11025648 186.40625 286.10546875 C187.06282593 285.2705188 187.06282593 285.2705188 187.73266602 284.41870117 C190.28338216 281.1924571 192.86896569 277.99685195 195.4765625 274.81640625 C196.06767822 274.09453125 196.65879395 273.37265625 197.26782227 272.62890625 C198.41819465 271.22737267 199.57216889 269.82878547 200.73022461 268.43359375 C201.25366455 267.79679688 201.77710449 267.16 202.31640625 266.50390625 C202.78054932 265.94364746 203.24469238 265.38338867 203.72290039 264.80615234 C205.25208807 262.81845819 205.25208807 262.81845819 206.96875 259.10546875 C188.15875 240.29546875 169.34875 221.48546875 149.96875 202.10546875 C147.61006254 205.05382808 145.35115407 207.93163946 143.15625 210.98046875 C133.82728109 223.31878247 121.37373162 230.9533022 105.96875 233.10546875 C89.66111854 234.06691641 74.98003512 231.08280416 62.21264648 220.36474609 C51.34007463 210.69455277 44.61452444 197.76604031 43.73046875 183.171875 C43.28128268 164.97781588 47.90153945 150.99515608 60.4453125 137.4453125 C64.53291013 133.65510974 69.12930617 130.83726695 73.96875 128.10546875 C68.90919604 121.94296704 63.34456637 116.3285147 57.70166016 110.70800781 C56.10073611 109.11243153 54.50521316 107.51159535 52.91015625 105.91015625 C43.40100749 95.7269398 43.40100749 95.7269398 31.96875 88.10546875 Z M84.1328125 169.38671875 C81.31359205 173.54932613 81.38041755 178.2745136 81.96875 183.10546875 C84.39966188 187.96729252 87.68156586 190.91288482 91.96875 194.10546875 C96.99559672 195.78108432 101.25415388 195.68373528 106.09375 193.54296875 C111.53843452 190.54046311 114.25090246 186.57306966 115.96875 180.66796875 C115.96875 174.82323029 114.35789736 170.7949723 110.65625 166.29296875 C106.94309628 163.27063433 103.82753375 161.34276029 99.03125 160.73046875 C92.0746037 161.58230299 88.46141409 164.10906548 84.1328125 169.38671875 Z M234.96875 287.10546875 C232.95089265 289.47637504 230.98105695 291.86687727 229.03125 294.29296875 C228.14336792 295.39282104 228.14336792 295.39282104 227.23754883 296.51489258 C222.55310368 302.33676276 217.9616456 308.22135096 213.44140625 314.171875 C211.71716487 316.43579935 209.98357406 318.6924332 208.25 320.94921875 C201.14470331 330.21632514 194.11206244 339.51625609 187.39331055 349.0690918 C176.91718751 363.82397257 176.91718751 363.82397257 170.96875 365.10546875 C165.18517428 365.78310841 158.74166401 366.1868842 153.73828125 362.75390625 C149.32897852 358.64634388 145.68040734 353.83313355 141.96875 349.10546875 C140.65740157 347.45871774 139.3449786 345.81282156 138.03125 344.16796875 C137.391875 343.36359375 136.7525 342.55921875 136.09375 341.73046875 C133.15951159 338.1058213 130.14161948 334.55501208 127.11450195 331.0078125 C124.08080125 327.44630576 121.13623321 323.82600562 118.21875 320.16796875 C112.89765904 313.6749146 107.58868905 307.69785444 98.96875 306.10546875 C88.53262245 305.21658722 78.84373705 305.18071288 70.45703125 312.2109375 C65.30800972 317.17071474 60.7671379 322.62016175 56.30859375 328.19921875 C54.23947524 330.76920902 52.1275344 333.28777976 49.98291016 335.79418945 C38.6339127 349.0599508 28.25621005 363.00741952 17.96875 377.10546875 C29.24259747 394.91967468 52.28470064 407.38212528 72.421875 412.2109375 C91.68910134 416.16464209 111.33595918 417.69025019 130.90625 419.29296875 C131.9342572 419.37764404 132.9622644 419.46231934 134.02142334 419.54956055 C156.69948231 421.39684285 179.27774714 422.31571236 202.03125 422.29296875 C203.16215057 422.2923645 204.29305115 422.29176025 205.45822144 422.2911377 C225.68876299 422.26203436 245.80034254 421.69212011 265.96875 420.10546875 C266.8317572 420.03759155 267.6947644 419.96971436 268.58392334 419.89978027 C312.05400125 417.9467184 312.05400125 417.9467184 352.96875 405.10546875 C351.33187397 400.93287956 348.27544032 398.14121802 345.1484375 395.0546875 C344.57094757 394.47765579 343.99345764 393.90062408 343.39846802 393.30610657 C342.17523633 392.08589213 340.94957895 390.86810524 339.72167969 389.65258789 C337.86603973 387.81504115 336.01836463 385.96978337 334.171875 384.12304688 C332.9770299 382.93312423 331.78173113 381.74365693 330.5859375 380.5546875 C329.77139603 379.74181526 329.77139603 379.74181526 328.94039917 378.91252136 C326.13364272 376.13932942 323.27075064 373.48063603 320.27381897 370.91351318 C315.90901756 367.10680984 311.81190094 363.07563901 307.73266602 358.96704102 C306.56289467 357.79507927 306.56289467 357.79507927 305.36949158 356.59944153 C303.69113939 354.91730792 302.01394253 353.23402091 300.33780098 351.54968452 C297.68868521 348.88773945 295.03640017 346.22898878 292.38328552 343.57102966 C286.76312221 337.93948268 281.14689921 332.30401599 275.53125 326.66796875 C268.9988977 320.11196271 262.46486867 313.55764633 255.92667961 307.00745964 C253.3071179 304.3813912 250.69057118 301.75234326 248.07411194 299.1231842 C246.48257856 297.52802153 244.89090643 295.93299728 243.29907227 294.33813477 C242.56717682 293.601073 241.83528137 292.86401123 241.08120728 292.10461426 C240.41826157 291.44159805 239.75531586 290.77858185 239.07228088 290.09547424 C238.49364572 289.51461846 237.91501055 288.93376268 237.31884098 288.33530521 C236.14991689 286.99323271 236.14991689 286.99323271 234.96875 287.10546875 Z " fill="#818181" transform="translate(53.03125,15.89453125)"/>
<path d="M0 0 C1.12307556 0.00027191 2.24615112 0.00054382 3.40325928 0.00082397 C158.33579618 0.17166224 158.33579618 0.17166224 209.125 49.1875 C209.96546875 49.96480469 210.8059375 50.74210937 211.671875 51.54296875 C242.11527379 80.4835883 250.49887722 118.37772948 255.375 158.5 C255.45808411 159.18329376 255.54116821 159.86658752 255.62677002 160.57058716 C257.29801365 174.49474734 258.27756309 188.32922776 258.328125 202.359375 C258.33513931 203.66859924 258.34215363 204.97782349 258.34938049 206.32672119 C258.3687801 210.5303191 258.3738147 214.73386184 258.375 218.9375 C258.37566278 220.01194366 258.37566278 220.01194366 258.37633896 221.10809326 C258.38340037 242.9357174 258.08028815 264.52294276 255.125 286.1875 C255.0354303 286.86051147 254.9458606 287.53352295 254.85357666 288.22692871 C251.6952138 311.93558696 247.9009327 334.6356346 237.125 356.1875 C233.01416975 354.55844796 230.24373612 351.59496565 227.1875 348.515625 C226.62554932 347.95558777 226.06359863 347.39555054 225.48461914 346.81854248 C224.29880892 345.63409081 223.1155109 344.44711942 221.93457031 343.2578125 C220.13822062 341.4507991 218.33151576 339.65464398 216.5234375 337.859375 C215.36915026 336.70376532 214.21548402 335.54753495 213.0625 334.390625 C212.5269751 333.85914856 211.9914502 333.32767212 211.43969727 332.78009033 C208.18580051 329.48575886 205.62147334 326.11246138 203.125 322.1875 C201.97222199 320.6137592 200.80447821 319.05085734 199.62109375 317.5 C198.96842529 316.64349854 198.31575684 315.78699707 197.64331055 314.90454102 C196.95664307 314.00791748 196.26997559 313.11129395 195.5625 312.1875 C194.84940674 311.25413818 194.13631348 310.32077637 193.40161133 309.35913086 C188.12556857 302.46526807 182.79509121 295.61739988 177.40625 288.81152344 C176.09762461 287.15280085 174.7977211 285.48757696 173.5 283.8203125 C162.43524031 269.62047019 150.9534689 255.75745334 139.125 242.1875 C137.85269531 240.72763672 137.85269531 240.72763672 136.5546875 239.23828125 C127.87321353 229.42506398 119.6169578 223.74202886 106.26953125 222.546875 C95.18272095 220.82585862 88.46568246 211.80774704 81.1875 204 C79.7170541 202.46925139 78.24376484 200.9412288 76.76757812 199.41601562 C73.18648632 195.70380386 69.64591779 191.95679582 66.125 188.1875 C67.125 186.1875 67.125 186.1875 70.08984375 185.15234375 C94.21601769 178.62218439 119.57964107 180.01448279 142 191.5 C156.27495151 199.69975689 166.59712774 211.62638653 176.7890625 224.3203125 C179.46374473 227.60328366 182.22704562 230.80016588 185 234 C189.94614003 239.72875713 194.6662887 245.60188221 199.30859375 251.578125 C202.89799745 256.19690882 206.56984563 260.74954754 210.2421875 265.30249023 C212.31246427 267.87812937 214.2906373 270.43595596 216.125 273.1875 C218.0873082 255.87830174 218.48631364 238.72292094 218.4375 221.3125 C218.43557675 219.95116182 218.43373622 218.58982351 218.43197632 217.22848511 C218.39471072 197.39676076 217.97832908 177.84346306 215.125 158.1875 C214.85163818 156.24012939 214.85163818 156.24012939 214.57275391 154.25341797 C210.82376317 127.91519806 205.31496002 104.47760439 187.125 84.1875 C186.58746094 83.50816406 186.04992187 82.82882813 185.49609375 82.12890625 C164.23171731 55.64170051 131.25369272 48.84773017 99.40579224 45.32342529 C83.01035354 43.54522326 66.59403523 42.08612297 50.125 41.1875 C49.35891418 41.14546448 48.59282837 41.10342896 47.80352783 41.06011963 C33.1596143 40.27516438 18.53912189 39.95196454 3.875 39.9375 C2.7770108 39.93516357 1.67902161 39.93282715 0.54776001 39.93041992 C-21.95711089 39.91263414 -44.34717832 41.07975998 -66.78651428 42.73016357 C-68.42246492 42.84785261 -70.0594143 42.95267193 -71.69715881 43.04199219 C-73.63247912 43.17129648 -75.55868073 43.42379006 -77.47949219 43.69335938 C-82.80273407 42.9003081 -85.38460318 39.54589322 -88.99609375 35.75 C-89.74085464 34.99533447 -90.48561554 34.24066895 -91.25294495 33.46313477 C-93.62308506 31.053875 -95.96770915 28.6214126 -98.3125 26.1875 C-99.91699569 24.54788827 -101.5230982 22.9098473 -103.13085938 21.2734375 C-107.06438564 17.26281782 -110.97724795 13.23287932 -114.875 9.1875 C-114.545 8.5275 -114.215 7.8675 -113.875 7.1875 C-111.39040173 6.74263565 -108.99126751 6.42942844 -106.484375 6.1875 C-105.33917389 6.06656731 -105.33917389 6.06656731 -104.1708374 5.94319153 C-101.65648451 5.68113065 -99.1409546 5.43367366 -96.625 5.1875 C-94.88604927 5.01149392 -93.14711709 4.8353045 -91.40820312 4.65893555 C-76.58636412 3.17690643 -61.75050008 1.9841644 -46.875 1.1875 C-46.10621521 1.14513214 -45.33743042 1.10276428 -44.54534912 1.05911255 C-29.69362432 0.25499492 -14.87221269 -0.01370417 0 0 Z " fill="#818181" transform="translate(253.875,34.8125)"/>
</svg>